<svg xmlns="http://www.w3.org/2000/svg" width="12" height="12" fill="none"><g clip-path="url(#A)"><path d="M11.814 2.988a.95.95 0 0 0-.425-.31 1.16 1.16 0 0 1-.036.411L9.19 10.2c-.04.125-.123.225-.252.3a.8.8 0 0 1-.404.112h-6.65c-.576 0-.922-.168-1.038-.504-.048-.13-.046-.233.007-.3s.144-.108.274-.108H7.39c.447 0 .755-.083.926-.25s.342-.534.515-1.106l1.974-6.53c.106-.355.063-.668-.13-.937S10.21.466 9.854.466H4.37c-.062 0-.185.022-.368.065L4 .51C3.875.48 3.76.467 3.667.47a.48.48 0 0 0-.259.083c-.08.053-.143.11-.19.17a1.24 1.24 0 0 0-.141.231l-.115.26-.108.252c-.04.09-.08.162-.12.22l-.123.15-.13.166c-.034.048-.055.09-.065.13a.47.47 0 0 0 .014.191c.02.084.026.145.022.184-.02.183-.085.414-.198.695s-.215.484-.306.61c-.02.024-.072.078-.16.162s-.14.157-.158.22c-.02.024-.02.09-.004.202a1.04 1.04 0 0 1 .018.231c-.02.163-.08.38-.18.65s-.202.5-.303.663a1.18 1.18 0 0 1-.122.166c-.067.082-.108.15-.122.202-.01.038-.008.106.004.202s.01.168-.004.216a3.91 3.91 0 0 1-.216.659 4.81 4.81 0 0 1-.324.659c-.03.048-.068.105-.12.17s-.1.12-.12.17a.45.45 0 0 0-.058.151c-.005.03.002.076.022.14a.4.4 0 0 1 .022.155l-.03.267-.022.194c-.106.288-.1.593.014.915.135.374.373.69.717.947s.7.385 1.07.385h6.65c.312 0 .606-.104.883-.313s.46-.467.55-.775l1.982-6.528c.106-.346.063-.656-.13-.93zm-7.667.014l.15-.46c.02-.062.06-.116.12-.162s.12-.068.184-.068h4.38c.067 0 .115.023.144.068s.034.1.015.162l-.15.46c-.02.062-.06.116-.12.162s-.12.068-.184.068h-4.38c-.067 0-.115-.023-.144-.068s-.034-.1-.014-.162zM3.55 4.847l.15-.46c.02-.062.06-.116.12-.162s.12-.068.184-.068h4.38c.067 0 .115.023.144.068s.034.1.014.162l-.15.46c-.02.062-.06.117-.12.162s-.12.068-.184.068h-4.38c-.067 0-.115-.023-.144-.068s-.034-.1-.014-.162z" fill="#b3c9ce"/></g><defs><clipPath id="A"><path fill="#fff" d="M0 0h12v12H0z"/></clipPath></defs></svg>