<svg xmlns="http://www.w3.org/2000/svg" width="12" height="12" fill="none"><g clip-path="url(#A)" fill="#5c848c"><path d="M6 5.87c1.334 0 2.416-1.314 2.416-2.934S8.06 0 6 0 3.584 1.314 3.584 2.934 4.665 5.87 6 5.87zm-4.564 4.48c0-.1-.001-.028 0 0zm9.127.076c.001-.027 0-.188 0 0z"/><path d="M10.557 10.23c-.045-2.823-.413-3.628-3.235-4.137 0 0-.397.506-1.323.506s-1.323-.506-1.323-.506c-2.79.504-3.182 1.296-3.233 4.045l-.007.2v.297S2.108 12 6 12s4.563-1.354 4.563-1.354v-.22a1.89 1.89 0 0 1-.005-.196z"/></g><defs><clipPath id="A"><path fill="#fff" d="M0 0h12v12H0z"/></clipPath></defs></svg>