<svg width="12" height="12" viewBox="0 0 12 12" fill="none" xmlns="http://www.w3.org/2000/svg">
<g clip-path="url(#clip0)">
<path d="M5.99971 5.86879C7.33391 5.86879 8.41559 4.55503 8.41559 2.93441C8.41559 1.31376 8.06046 0 5.99971 0C3.93897 0 3.58377 1.31376 3.58377 2.93441C3.58377 4.55503 4.66545 5.86879 5.99971 5.86879Z" fill="#5C848C"/>
<path d="M1.43633 10.3493C1.43592 10.2504 1.4355 10.3214 1.43633 10.3493V10.3493Z" fill="#5C848C"/>
<path d="M10.5629 10.4264C10.5642 10.3994 10.5634 10.2387 10.5629 10.4264V10.4264Z" fill="#5C848C"/>
<path d="M10.557 10.2308C10.5123 7.40765 10.1436 6.60321 7.3221 6.09399C7.3221 6.09399 6.92493 6.60009 5.99922 6.60009C5.0735 6.60009 4.67627 6.09399 4.67627 6.09399C1.88558 6.59765 1.49445 7.39017 1.44302 10.1391C1.4388 10.3636 1.43685 10.3754 1.4361 10.3493C1.43627 10.3981 1.43647 10.4884 1.43647 10.6459C1.43647 10.6459 2.1082 12.0001 5.99922 12.0001C9.89017 12.0001 10.562 10.6459 10.562 10.6459C10.562 10.5447 10.562 10.4744 10.5621 10.4265C10.5614 10.4426 10.5599 10.4114 10.557 10.2308Z" fill="#5C848C"/>
</g>
<defs>
<clipPath id="clip0">
<rect width="12" height="12" fill="white"/>
</clipPath>
</defs>
</svg>
