<svg width="12" height="12" viewBox="0 0 12 12" fill="none" xmlns="http://www.w3.org/2000/svg">
<g clip-path="url(#clip0)">
<path d="M11.8136 2.98808C11.7129 2.85355 11.5711 2.75035 11.3882 2.67827C11.398 2.84648 11.3861 2.98341 11.3524 3.08918L9.19066 10.2013C9.15215 10.3262 9.06803 10.4259 8.93847 10.5003C8.80872 10.5749 8.67424 10.6121 8.53492 10.6121H1.88394C1.30748 10.6121 0.961651 10.4442 0.846308 10.1077C0.798278 9.97797 0.800701 9.87477 0.853577 9.79789C0.906377 9.72578 0.997643 9.68966 1.12742 9.68966H7.38932C7.8361 9.68966 8.14473 9.60675 8.31529 9.44101C8.48599 9.27526 8.65766 8.90652 8.8305 8.33492L10.8049 1.80633C10.9106 1.45086 10.8674 1.13857 10.6752 0.869625C10.483 0.600676 10.2092 0.466125 9.85367 0.466125H4.37008C4.30764 0.466125 4.1851 0.48768 4.00255 0.53094L4.00971 0.509259C3.87519 0.480487 3.76108 0.467312 3.66742 0.469609C3.57378 0.472107 3.48729 0.499694 3.40804 0.55262C3.32878 0.605471 3.26508 0.661855 3.21708 0.721874C3.16905 0.781944 3.12215 0.858822 3.07654 0.95246C3.03099 1.04622 2.9925 1.13272 2.96128 1.21197C2.93006 1.29122 2.89399 1.37534 2.85323 1.46431C2.81234 1.55318 2.77282 1.62642 2.73435 1.68404C2.7055 1.72248 2.66474 1.77291 2.61184 1.83538C2.55907 1.89782 2.51581 1.95309 2.48219 2.00112C2.44859 2.04915 2.42691 2.09239 2.41737 2.13085C2.40783 2.17404 2.41258 2.23769 2.43178 2.32181C2.45097 2.40581 2.45821 2.46701 2.45334 2.50548C2.43416 2.68801 2.36808 2.91975 2.25524 3.20087C2.14239 3.48193 2.0402 3.68496 1.94896 3.80979C1.92975 3.83377 1.87695 3.88783 1.79046 3.97193C1.70396 4.05597 1.65114 4.12917 1.63198 4.19161C1.61275 4.21561 1.61154 4.2829 1.62834 4.39337C1.64515 4.50392 1.65124 4.58072 1.64639 4.62395C1.62708 4.78733 1.56714 5.00348 1.46621 5.27253C1.36528 5.5415 1.26445 5.76252 1.16351 5.93543C1.14915 5.96423 1.10837 6.01943 1.04103 6.10118C0.973842 6.18288 0.932929 6.25014 0.918543 6.30284C0.908952 6.34128 0.910214 6.40854 0.922177 6.5046C0.934115 6.60066 0.932929 6.6727 0.918543 6.7207C0.880154 6.90313 0.808071 7.12301 0.702369 7.38007C0.596693 7.63696 0.488593 7.85699 0.37802 8.03935C0.349298 8.08745 0.309572 8.14396 0.259194 8.20873C0.208741 8.27349 0.169141 8.33 0.140292 8.37801C0.111494 8.42604 0.092262 8.47647 0.0826459 8.52934C0.0778504 8.55819 0.0851193 8.60501 0.104326 8.66995C0.123508 8.73471 0.130752 8.78635 0.125881 8.82492C0.121035 8.8921 0.111494 8.98107 0.0970827 9.09162C0.0826459 9.20199 0.0754022 9.26676 0.0754022 9.28594C-0.0302743 9.57427 -0.0255293 9.87934 0.089839 10.2013C0.224364 10.5758 0.463303 10.8919 0.806784 11.1488C1.15029 11.4059 1.50692 11.5342 1.87688 11.5342H8.52793C8.84007 11.5342 9.13433 11.4297 9.41057 11.2209C9.68679 11.0119 9.87061 10.7538 9.96172 10.4461L11.9433 3.91771C12.0491 3.57173 12.0059 3.2619 11.8136 2.98808ZM4.14664 3.00249L4.298 2.54127C4.31718 2.47883 4.35678 2.42479 4.41685 2.37916C4.47692 2.3336 4.5382 2.31071 4.60064 2.31071H8.98188C9.0491 2.31071 9.0971 2.3335 9.12595 2.37916C9.15472 2.42481 9.15965 2.47883 9.14046 2.54127L8.98898 3.00249C8.9697 3.06495 8.93025 3.11887 8.87002 3.16462C8.80991 3.21018 8.74875 3.23297 8.68633 3.23297H4.30521C4.23793 3.23297 4.18992 3.21026 4.16107 3.16462C4.13225 3.11887 4.12745 3.06495 4.14664 3.00249ZM3.54859 4.8472L3.69993 4.38605C3.71911 4.32361 3.75876 4.26957 3.81878 4.22394C3.87885 4.17828 3.94005 4.15549 4.00257 4.15549H8.38367C8.45095 4.15549 8.49906 4.17821 8.52783 4.22394C8.5566 4.2696 8.56143 4.32361 8.54217 4.38605L8.39083 4.8472C8.37168 4.90964 8.33203 4.96373 8.27201 5.00931C8.21186 5.05496 8.15073 5.07776 8.08819 5.07776H3.7071C3.63986 5.07776 3.59183 5.05504 3.56303 5.00931C3.53416 4.96373 3.52939 4.90964 3.54859 4.8472Z" fill="#B3C9CE"/>
</g>
<defs>
<clipPath id="clip0">
<rect width="12" height="12" fill="white"/>
</clipPath>
</defs>
</svg>
